<svg xmlns="http://www.w3.org/2000/svg" viewBox="0 0 54.1 53.8">
   <path d="M2.4 0A2.4 2.4 0 0 0 0 2.4v49c0 1.3 1.1 2.4 2.4 2.4h49.3c1.3 0 2.4-1.1 2.4-2.4v-49c0-1.3-1-2.4-2.4-2.4zM4 4h46.2v45.8H4z"/>
   <path d="M12.9 24.2c-.6 0-1.1.3-1.1.7v3c0 .5.5.8 1 .8h28.5c.6 0 1-.3 1-.7v-3c0-.5-.4-.8-1-.8z"/>
   <path d="M12.9 13.8c-.6 0-1.1.3-1.1.7v3c0 .4.5.7 1 .7h28.5c.6 0 1-.3 1-.6v-3.1c0-.4-.4-.7-1-.7z"/>
   <path d="M12.9 34.7c-.6 0-1.1.3-1.1.6v3.1c0 .4.5.7 1 .7h28.5c.6 0 1-.3 1-.7v-3c0-.4-.4-.7-1-.7z"/>
</svg>
