<?xml version="1.0" encoding="UTF-8" standalone="no"?>
<!-- Created with Inkscape (http://www.inkscape.org/) -->

<svg
   xmlns:dc="http://purl.org/dc/elements/1.1/"
   xmlns:cc="http://creativecommons.org/ns#"
   xmlns:rdf="http://www.w3.org/1999/02/22-rdf-syntax-ns#"
   xmlns:svg="http://www.w3.org/2000/svg"
   xmlns="http://www.w3.org/2000/svg"
   xmlns:sodipodi="http://sodipodi.sourceforge.net/DTD/sodipodi-0.dtd"
   xmlns:inkscape="http://www.inkscape.org/namespaces/inkscape"
   width="36.89579mm"
   height="46.446358mm"
   viewBox="0 0 36.89579 46.446358"
   version="1.1"
   id="svg6913"
   inkscape:version="0.92.3 (2405546, 2018-03-11)"
   sodipodi:docname="svg-glowa.svg"
   inkscape:export-filename="E:\Pulpit\bitmap.png"
   inkscape:export-xdpi="2507"
   inkscape:export-ydpi="2507">
  <defs
     id="defs6907" />
  <sodipodi:namedview
     id="base"
     pagecolor="#ffffff"
     bordercolor="#666666"
     borderopacity="1.0"
     inkscape:pageopacity="0.0"
     inkscape:pageshadow="2"
     inkscape:zoom="1.979899"
     inkscape:cx="5.8420919"
     inkscape:cy="106.27203"
     inkscape:document-units="mm"
     inkscape:current-layer="svg6913"
     showgrid="false"
     fit-margin-top="0"
     fit-margin-left="0"
     fit-margin-right="0"
     fit-margin-bottom="0"
     inkscape:window-width="2560"
     inkscape:window-height="1386"
     inkscape:window-x="-8"
     inkscape:window-y="-8"
     inkscape:window-maximized="1" />
  <path
     inkscape:connector-curvature="0"
     style="fill:#2b2b2b;fill-opacity:1;fill-rule:nonzero;stroke:none;stroke-width:0.72311115"
     d="m 17.989887,0.00175289 c 1.410442,0.0164 2.936574,0.141843 4.589708,0.395092 4.58522,0.72385301 11.293835,4.34394201 12.356085,9.12227401 1.54457,7.3366701 3.90947,21.2869601 -0.91729,22.4453801 -2.31685,0.53073 0.4345,-16.17026 -7.529116,-15.59106 -2.992963,0.19309 -3.861366,4.48864 -3.137512,8.35005 1.013793,5.4544 5.116048,10.03945 1.882278,17.18306 -1.109989,2.41301 -8.832987,4.63366 -11.729037,4.53675 -4.8745029,-0.14451 -9.6521739,-0.62717 -10.8105989,-5.98472 -0.386155,-1.83378 6.274246,-1.06118 5.550392,-4.97103 -0.579202,-3.3784 -6.854431,-1.10998 -8.20592202,-1.88227 -0.386155,-0.24155 2.17193002,-2.51035 4.68184502,-2.79957 0.820705,-0.0969 1.448404,0.0961 2.123781,-0.48307 1.496123,-1.25527 9.0258279,-0.772 10.6666029,-3.90968 2.992922,-5.59829 0.627925,-10.5224 -1.833576,-13.41847 -1.351491,-1.59228 2.123289,-3.2818801 3.860936,-4.4880201 C 19.200805,7.2034139 16.786819,5.3200499 13.070761,5.2238339 9.0162661,5.0793259 5.5413221,8.2647589 1.7283511,9.8093189 3.9245291,5.1638579 8.1166041,-0.11022611 17.989887,0.00175289 Z M 6.8550771,16.918989 c 1.975009,-0.0724 3.8357639,1.27676 5.7813799,1.8198 -1.641492,0 -3.2824309,-0.38626 -4.8269899,0.0478 -1.254578,0.28992 -1.979026,1.64202 -3.185169,1.97968 -0.579222,0.19309 -1.978719,10e-5 -1.689477,-0.53068 0.676115,-1.44837 1.931083,-3.04107 3.524139,-3.28258 0.13262,-0.0184 0.264481,-0.0293 0.396117,-0.0336 z m -5.821576,4.01348 c 0.339277,0.0205 0.826834,0.29149 0.935307,0.50844 0.193088,0.28992 0.145329,1.1583 0,1.25517 -0.289283,0.19309 -1.20544502,0.19309 -1.44694802,-0.2415 -0.193088,-0.28922 -0.04838,-1.2061 0.241503,-1.44689 0.06026,-0.0605 0.157012,-0.082 0.27013802,-0.0752 z m 2.621587,15.48931 c 0.730843,0.0164 1.64473,0.40454 1.499935,0.65781 -0.579222,1.06225 -2.123453,2.36559 -3.08881,1.68951 -0.193088,-0.14471 0.385766,-1.83406 0.964968,-2.2202 0.157012,-0.0965 0.380354,-0.13241 0.623907,-0.12708 z"
     id="path4764" />
  <metadata
     id="metadata7465">
    <rdf:RDF>
      <cc:Work
         rdf:about="">
        <dc:title></dc:title>
      </cc:Work>
    </rdf:RDF>
  </metadata>
</svg>
