<svg xmlns="http://www.w3.org/2000/svg" viewBox="0 0 36.8958 46.4464">
  <path fill="#2b2b2b" d="M17.9899.0018c1.4104.0164 2.9366.1418 4.5897.395 4.5852.7239 11.2938 4.344 12.356 9.1223 1.5446 7.3367 3.9095 21.287-.9172 22.4454-2.3169.5307.4345-16.1703-7.5291-15.591-2.993.193-3.8614 4.4886-3.1375 8.35 1.0138 5.4544 5.116 10.0394 1.8822 17.183-1.11 2.413-8.833 4.6337-11.729 4.5368-4.8745-.1445-9.6522-.6272-10.8106-5.9847-.3862-1.8338 6.2743-1.0612 5.5504-4.971-.5792-3.3785-6.8544-1.11-8.206-1.8823-.386-.2416 2.172-2.5104 4.682-2.7996.8206-.0969 1.4483.0961 2.1237-.483 1.4961-1.2553 9.0258-.772 10.6666-3.9097 2.993-5.5983.628-10.5224-1.8336-13.4185-1.3515-1.5923 2.1233-3.2819 3.861-4.488-.3377-1.303-2.7517-3.1865-6.4677-3.2827-4.0545-.1445-7.5295 3.041-11.3424 4.5855C3.9245 5.164 8.1166-.1102 17.9899.0018zM6.855 16.919c1.975-.0724 3.8357 1.2767 5.7814 1.8198-1.6415 0-3.2825-.3863-4.827.0478-1.2546.29-1.979 1.642-3.1852 1.9797-.5792.193-1.9787 0-1.6895-.5307.6761-1.4484 1.9311-3.041 3.5242-3.2826a3.7744 3.7744 0 0 1 .396-.0336zm-5.8216 4.0135c.3393.0205.8268.2915.9353.5084.1931.29.1453 1.1583 0 1.2552-.2893.193-1.2054.193-1.447-.2415-.193-.2892-.0483-1.2061.2416-1.447.0602-.0604.157-.082.2701-.0751zm2.6216 15.4893c.7308.0164 1.6447.4045 1.5.6578-.5793 1.0622-2.1235 2.3656-3.0889 1.6895-.193-.1447.3858-1.834.965-2.2202.157-.0965.3803-.1324.6239-.127z"/>
</svg>
